# AST/ASF file generated using VICON BodyLanguage
# -----------------------------------------------
:version 1.10
:name VICON
:units
  mass 1.0
  length 0.45
  angle deg
:documentation
   .ast/.asf automatically generated from VICON data using
   VICON BodyBuilder and BodyLanguage model FoxedUp or BRILLIANT.MOD
:root
   order TX TY TZ RX RY RZ
   axis XYZ
   position 0 0 0  
   orientation 0 0 0 
:bonedata
  begin
     id 1 
     name lhipjoint
     direction 0.662698 -0.695252 0.27831 
     length 2.53073 
     axis 0 0 0  XYZ
  end
  begin
     id 2 
     name lfemur
     direction 0.34202 -0.939693 0  
     length 7.16147  
     axis 0 0 20  XYZ
    dof rx ry rz
    limits (-160.0 20.0)
           (-70.0 70.0)
           (-60.0 70.0)
  end
  begin
     id 3 
     name ltibia
     direction 0.34202 -0.939693 0   
     length 7.63967   
     axis 0 0 20   XYZ
    dof rx
    limits (-10.0 170.0)
  end
  begin
     id 4 
     name lfoot
     direction 0.0938457 -0.257721 0.961651   
     length 1.89793   
     axis -90 7.62852e-016 20   XYZ
    dof rx rz
    limits (-45.0 90.0)
           (-70.0 20.0)
  end
  begin
     id 5 
     name ltoes
     direction -0.00116841 -0.0030592 0.999995   
     length 0.955649   
     axis -90 7.62852e-016 20   XYZ
    dof rx
    limits (-90.0 20.0)
  end
  begin
     id 6 
     name rhipjoint
     direction -0.649445 -0.705948 0.282592   
     length 2.49238  
     axis 0 0 0  XYZ 
  end
  begin
     id 7 
     name rfemur
     direction -0.34202 -0.939693 0   
     length 6.90728   
     axis 0 0 -20   XYZ
    dof rx ry rz
    limits (-160.0 20.0)
           (-70.0 70.0)
           (-70.0 60.0)
  end
  begin
     id 8 
     name rtibia
     direction -0.34202 -0.939693 0   
     length 7.72868   
     axis 0 0 -20   XYZ
    dof rx
    limits (-10.0 170.0)
 end
 begin
     id 9 
     name rfoot
     direction -0.0920068 -0.252865 0.963117   
     length 1.97476  
     axis -90 -7.62852e-016 -20   XYZ
    dof rx rz
    limits (-45.0 90.0)
           (-20.0 70.0)
  end
  begin
     id 10 
     name rtoes
     direction 0.000391322 0.00230649 0.999997   
     length 0.992641   
     axis -90 -7.62852e-016 -20   XYZ
    dof rx
    limits (-90.0 20.0)
  end
  begin
     id 11 
     name lowerback
     direction -0.00875327 0.998321 -0.0572635   
     length 2.20024   
     axis 0 0 0   XYZ
    dof rx ry rz
    limits (-20.0 45.0)
           (-30.0 30.0)
           (-30.0 30.0)
  end
  begin
     id 12 
     name upperback
     direction 0.00753931 0.999972 -0.000360425   
     length 2.20538   
     axis 0 0 0   XYZ
    dof rx ry rz
    limits (-20.0 45.0)
           (-30.0 30.0)
           (-30.0 30.0)
  end
  begin
     id 13 
     name thorax
     direction 0.0117767 0.999601 0.0256663   
     length 2.21508   
     axis 0 0 0   XYZ
    dof rx ry rz
    limits (-20.0 45.0)
           (-30.0 30.0)
           (-30.0 30.0)
  end
  begin
     id 14 
     name lowerneck
     direction 0.060228 0.994909 0.0807986   
     length 1.7607   
     axis 0 0 0   XYZ
    dof rx ry rz
    limits (-20.0 45.0)
           (-30.0 30.0)
           (-30.0 30.0)
  end
  begin
     id 15 
     name upperneck
     direction -0.0563647 0.959594 -0.275685   
     length 1.75612   
     axis 0 0 0   XYZ
    dof rx ry rz
    limits (-20.0 45.0)
           (-30.0 30.0)
           (-30.0 30.0)
  end
  begin
     id 16
     name head
     direction -0.0161544 0.99458 -0.102714  
     length 1.79288  
     axis 0 0 0   XYZ
    dof rx ry rz
    limits (-20.0 45.0)
           (-30.0 30.0)
           (-30.0 30.0)
  end
  begin
     id 17 
     name lclavicle
     direction 0.93913 0.332189 -0.087669  
     length 3.52087  
     axis 0 0 0   XYZ
    dof ry rz
    limits (-20.0 10.0)
           (0.0 20.0)
  end
  begin
     id 18 
     name lhumerus
     direction 1 -4.48974e-011 -2.70836e-027   
     length 5.35289   
     axis -180 -30 -90   XYZ
    dof rx ry rz
    limits (-60.0 90.0)
           (-90.0 90.0)
           (-90.0 90.0)
  end
  begin
     id 19
     name lradius
     direction 1 -4.48961e-011 -9.76021e-027   
     length 3.27727   
     axis -180 -30 -90   XYZ
    dof rx
    limits (-10.0 170.0)
  end
  begin
     id 20
     name lwrist
     direction 1 -4.49103e-011 -2.23668e-026   
     length 1.63864   
     axis 1.44924e-014 90 90   XYZ
    dof ry
    limits (-180.0 0.0)
 end
  begin
     id 21 
     name lhand
     direction 1 3.0697e-005 0.000161777   
     length 0.54443   
     axis 2.85318e-014 90 90   XYZ
    dof rx rz
    limits (-90.0 90.0)
           (-45.0 45.0)
  end
  begin
     id 22 
     name lfingers
     direction 1 -4.49027e-011 -8.9447e-026   
     length 0.438912   
     axis 5.70628e-014 90 90   XYZ
    dof rx
    limits (0.0 90.0)
  end
  begin
     id 23
     name lthumb
     direction 0.707058 2.6516e-005 0.707156   
     length 0.630274   
     axis -90 45 -3.53137e-014   XYZ
    dof rx rz
    limits (-45.0 45.0)
           (-45.0 45.0)
  end
  begin
     id 24 
     name rclavicle
     direction -0.95274 0.284984 -0.105215   
     length 3.43401  
     axis 0 0 0   XYZ 
    dof ry rz
    limits (-10.0 20.0)
           (-20.0 0.0)
  end
  begin
     id 25 
     name rhumerus
     direction -0.999999 -0.000575019 -0.00106829  
     length 5.52077   
     axis -180 30 90   XYZ
    dof rx ry rz
    limits (-90.0 60.0)
           (-90.0 90.0)
           (-90.0 90.0)
  end
  begin
     id 26 
     name rradius
     direction -1 -4.4879e-011 -6.35415e-027   
     length 3.32364   
     axis -180 30 90   XYZ
    dof rx
    limits (-10.0 170.0)
  end
  begin
     id 27 
     name rwrist
     direction -1 -4.49048e-011 -9.98542e-027   
     length 1.66182   
     axis 6.32482e-015 -90 -90   XYZ
    dof ry
    limits (-180.0 0.0)
  end
  begin
     id 28
     name rhand
     direction -1 -4.48978e-011 -1.99771e-026   
     length 0.732235   
     axis 1.27479e-014 -90 -90   XYZ
    dof rx rz
    limits (-90.0 90.0)
           (-45.0 45.0)
  end
  begin
     id 29
     name rfingers
     direction -1 -4.49144e-011 -3.99245e-026   
     length 0.590347   
     axis 2.5496e-014 -90 -90   XYZ
    dof rx
    limits (0.0 90.0)
  end
  begin
     id 30
     name rthumb
     direction -0.707107 -6.35121e-011 0.707107   
     length 0.847624   
     axis -90 -45 -2.82974e-014   XYZ
    dof rx rz
    limits (-45.0 45.0)
           (-45.0 45.0)
  end
:hierarchy
  begin
    root lhipjoint rhipjoint lowerback
    lhipjoint lfemur
    lfemur ltibia
    ltibia lfoot
    lfoot ltoes
    rhipjoint rfemur
    rfemur rtibia
    rtibia rfoot
    rfoot rtoes
    lowerback upperback
    upperback thorax
    thorax lowerneck lclavicle rclavicle
    lowerneck upperneck
    upperneck head
    lclavicle lhumerus
    lhumerus lradius
    lradius lwrist
    lwrist lhand lthumb
    lhand lfingers
    rclavicle rhumerus
    rhumerus rradius
    rradius rwrist
    rwrist rhand rthumb
    rhand rfingers
  end

#!OML:ASF G:\Work\Work\Patient Classification 1\Elijah\terrain1\Elijah.ASF
:FULLY-SPECIFIED
:DEGREES
1919
root 26.9083 21.359 12.0881 185.299 7.00088 -178.271
lowerback 11.3107 0.247747 16.3823
upperback 3.30234 2.37152 -4.28715
thorax -1.92651 1.3979 -14.4619
lowerneck -14.9895 11.5797 15.9234
upperneck 26.2 12.8108 -5.7231
head 12.6967 6.33708 -2.73387
rclavicle -3.97569e-016 1.19271e-014
rhumerus -31.6361 -3.82607 -93.02
rradius 37.3977
rwrist -3.46067
rhand -16.0518 30.1459
rfingers 7.12502
rthumb 10.1502 0.410711
lclavicle -3.97569e-016 1.19271e-014
lhumerus -45.9023 -4.38864 73.2525
lradius 42.5088
lwrist 8.5394
lhand -16.3654 26.6453
lfingers 7.12502
lthumb 9.84766 56.395
rfemur -23.2531 1.49167 25.4446
rtibia 43.4094
rfoot -24.2989 -6.63267
rtoes -14.0488
lfemur -42.3576 11.6607 -22.1637
ltibia 94.3902
lfoot 5.94226 -12.2338
ltoes -14.4056
1920
root 26.9316 21.3762 12.004 185.176 6.9908 -178.135
lowerback 11.4515 0.2244 16.2629
upperback 3.43688 2.36313 -4.14034
thorax -1.87516 1.41368 -14.2176
lowerneck -15.8144 11.5858 15.3887
upperneck 26.6072 12.8192 -5.56951
head 12.969 6.2913 -2.55553
rclavicle -7.25564e-015 -1.15295e-014
rhumerus -31.6377 -2.79154 -93.2164
rradius 38.3325
rwrist -4.15555
rhand -16.97 26.8068
rfingers 7.12502
rthumb 9.26425 -2.96964
lclavicle -7.25564e-015 -1.15295e-014
lhumerus -45.7559 -3.77943 73.2044
lradius 41.4736
lwrist 8.56894
lhand -16.2733 26.8432
lfingers 7.12502
lthumb 9.93652 56.5887
rfemur -22.4677 1.4814 25.6527
rtibia 42.8566
rfoot -24.3519 -6.61284
rtoes -14.1535
lfemur -43.3371 12.0614 -22.123
ltibia 94.1997
lfoot 5.3038 -12.2666
ltoes -13.5249
1921
root 26.9536 21.3869 11.9192 185.047 6.96016 -177.92
lowerback 11.643 0.181939 16.2094
upperback 3.54071 2.34598 -3.94079
thorax -1.88793 1.41502 -13.9547
lowerneck -16.9189 11.3623 14.9233
upperneck 27.2199 12.4518 -5.46626
head 13.3524 6.06871 -2.47083
rclavicle -4.46272e-014 8.54774e-015
rhumerus -31.7516 -1.50424 -93.4929
rradius 40.1533
rwrist -5.48311
rhand -17.4609 20.1613
rfingers 7.12502
rthumb 8.79063 -9.63559
lclavicle -4.46272e-014 8.54774e-015
lhumerus -45.7009 -3.24446 73.2714
lradius 40.5338
lwrist 8.65676
lhand -16.2918 27.5406
lfingers 7.12502
lthumb 9.91861 57.2869
rfemur -21.62 1.56826 25.9465
rtibia 42.2722
rfoot -24.4339 -6.69867
rtoes -13.9771
lfemur -44.2491 12.4542 -21.9939
ltibia 93.8635
lfoot 4.70251 -12.576
ltoes -13.0644
1922
root 26.9746 21.4002 11.8312 184.789 6.89829 -177.831
lowerback 11.8624 0.103755 16.0114
upperback 3.74052 2.27672 -3.72461
thorax -1.8384 1.40754 -13.5791
lowerneck -15.0805 11.6565 15.2267
upperneck 25.69 13.455 -6.6775
head 12.597 6.45898 -2.86391
rclavicle -2.39536e-014 3.16068e-014
rhumerus -31.4182 -0.916294 -93.1667
rradius 39.8649
rwrist -5.50399
rhand -17.3273 18.3867
rfingers 7.12502
rthumb 8.91947 -11.4048
lclavicle -2.39536e-014 3.16068e-014
lhumerus -45.4199 -2.51968 73.3512
lradius 39.3183
lwrist 8.26937
lhand -16.0128 27.8638
lfingers 7.12502
lthumb 10.1878 57.5971
rfemur -20.6117 1.60824 26.106
rtibia 41.6759
rfoot -24.5383 -6.83853
rtoes -13.6393
lfemur -44.9849 12.7717 -22.0021
ltibia 93.2573
lfoot 3.93963 -12.9401
ltoes -13.5721
1923
root 26.9889 21.424 11.7278 184.53 6.74598 -177.843
lowerback 11.9074 0.0474415 15.9014
upperback 3.76963 2.20179 -3.59727
thorax -1.87019 1.36864 -13.3573
lowerneck -15.7097 11.6024 14.2609
upperneck 26.3391 13.3126 -5.86675
head 12.8147 6.37265 -2.41208
rclavicle -1.88348e-014 -8.74653e-015
rhumerus -31.6031 -0.123111 -93.1271
rradius 40.3175
rwrist -5.70366
rhand -16.9378 12.5066
rfingers 7.12502
rthumb 9.29532 -17.2684
lclavicle -1.88348e-014 -8.74653e-015
lhumerus -45.5205 -1.99004 73.3304
lradius 38.0839
lwrist 7.89453
lhand -15.5482 27.44
lfingers 7.12502
lthumb 10.636 57.1509
rfemur -19.5502 1.46288 26.1157
rtibia 41.095
rfoot -24.6547 -7.00861
rtoes -13.1719
lfemur -45.6137 12.8658 -22.1977
ltibia 92.3617
lfoot 3.43176 -12.7946
ltoes -14.3201
